#Comment line ignore any data following # character 
#Hierarchical Translation and Rotation (.htr) file 
[Header]	
#Header keywords are followed by a single value 
FileType HTR		#Single word string
DataType HTRS		#Translation followed by rotation and scale data
FileVersion 1		#integer
NumSegments 84		#integer
NumFrames 2		#integer
DataFrameRate 30		#integer, data frame rate in this file
EulerRotationOrder ZYX
CalibrationUnits mm
RotationUnits Degrees
GlobalAxisofGravity Y
BoneLengthAxis Y
ScaleFactor 1.00
[SegmentNames&Hierarchy]
#CHILD	PARENT
MASTER GLOBAL
root MASTER
chest root
L_mid_tent01 root
R_mid_tent01 root
spine01 root
Bip01_Neck chest
L_humerus chest
R_humerus chest
weapon_bone chest
Bip01_Head Bip01_Neck
eye_left_bone Bip01_Head
eye_right_bone Bip01_Head
L_forearm L_humerus
L_front_hand L_forearm
L_weapon_bone L_forearm
L_front_hand01_01 L_front_hand
L_front_hand02_01 L_front_hand
L_front_hand03_01 L_front_hand
L_front_hand01_02 L_front_hand01_01
L_front_hand02_02 L_front_hand02_01
L_front_hand03_02 L_front_hand03_01
R_forearm R_humerus
R_front_hand R_forearm
R_weapon_bone R_forearm
R_front_hand01_01 R_front_hand
R_front_hand02_01 R_front_hand
R_front_hand03_01 R_front_hand
R_front_hand01_02 R_front_hand01_01
R_front_hand02_02 R_front_hand02_01
R_front_hand03_02 R_front_hand03_01
null_rope01_connect L_mid_tent01
Rope1_Seg01 null_rope01_connect
Rope1_Seg02 Rope1_Seg01
Rope1_Seg03 Rope1_Seg02
Rope1_Seg04 Rope1_Seg03
Rope1_Seg05 Rope1_Seg04
Rope1_Seg06 Rope1_Seg05
Rope1_Seg07 Rope1_Seg06
Rope1_Seg09 Rope1_Seg07
L_mid_hand01 Rope1_Seg09
L_mid_hand02 Rope1_Seg09
L_mid_hand03 Rope1_Seg09
null_rope02_connect R_mid_tent01
Rope2_Seg01 null_rope02_connect
Rope2_Seg02 Rope2_Seg01
Rope2_Seg03 Rope2_Seg02
Rope2_Seg04 Rope2_Seg03
Rope2_Seg05 Rope2_Seg04
Rope2_Seg06 Rope2_Seg05
Rope2_Seg07 Rope2_Seg06
Rope2_Seg09 Rope2_Seg07
R_mid_hand01 Rope2_Seg09
R_mid_hand02 Rope2_Seg09
R_mid_hand03 Rope2_Seg09
spine02 spine01
spine03 spine02
pelvis spine03
null_rope03_connect pelvis
null_rope04_connect pelvis
Rope3_Seg01 null_rope03_connect
Rope3_Seg02 Rope3_Seg01
Rope3_Seg03 Rope3_Seg02
Rope3_Seg04 Rope3_Seg03
Rope3_Seg05 Rope3_Seg04
Rope3_Seg06 Rope3_Seg05
Rope3_Seg07 Rope3_Seg06
Rope3_Seg08 Rope3_Seg07
Rope3_Seg09 Rope3_Seg08
R_rear_hand01 Rope3_Seg09
R_rear_hand02 Rope3_Seg09
R_rear_hand03 Rope3_Seg09
Rope4_Seg01 null_rope04_connect
Rope4_Seg02 Rope4_Seg01
Rope4_Seg03 Rope4_Seg02
Rope4_Seg04 Rope4_Seg03
Rope4_Seg05 Rope4_Seg04
Rope4_Seg06 Rope4_Seg05
Rope4_Seg07 Rope4_Seg06
Rope4_Seg08 Rope4_Seg07
Rope4_Seg09 Rope4_Seg08
L_rear_hand01 Rope4_Seg09
L_rear_hand02 Rope4_Seg09
L_rear_hand03 Rope4_Seg09
[BasePosition]
#SegmentName Tx, Ty, Tz, Rx, Ry, Rz, BoneLength
MASTER 0.000000 0.000000 0.000000 -90.000000 0.000000 0.000000 10.000000 
root 0.000000 0.000000 0.000000 0.000000 0.000000 0.000000 10.000000 
chest 0.000000 0.000000 0.000000 0.000000 0.000000 0.000000 10.000000 
L_mid_tent01 0.000000 0.000000 0.000000 0.000000 0.000000 0.000000 10.000000 
R_mid_tent01 0.000000 0.000000 0.000000 0.000000 0.000000 0.000000 10.000000 
spine01 0.000000 0.000000 0.000000 0.000000 0.000000 0.000000 10.000000 
Bip01_Neck 0.000000 0.000000 0.000000 0.000000 0.000000 0.000000 10.000000 
L_humerus 0.000000 0.000000 0.000000 0.000000 0.000000 0.000000 10.000000 
R_humerus 0.000000 0.000000 0.000000 0.000000 0.000000 0.000000 10.000000 
weapon_bone 0.000000 0.000000 0.000000 0.000000 0.000000 0.000000 10.000000 
Bip01_Head 0.000000 0.000000 0.000000 0.000000 0.000000 0.000000 10.000000 
eye_left_bone 0.000000 0.000000 0.000000 0.000000 0.000000 0.000000 10.000000 
eye_right_bone 0.000000 0.000000 0.000000 0.000000 0.000000 0.000000 10.000000 
L_forearm 0.000000 0.000000 0.000000 0.000000 0.000000 0.000000 10.000000 
L_front_hand 0.000000 0.000000 0.000000 0.000000 0.000000 0.000000 10.000000 
L_weapon_bone 0.000000 0.000000 0.000000 0.000000 0.000000 0.000000 10.000000 
L_front_hand01_01 0.000000 0.000000 0.000000 0.000000 0.000000 0.000000 10.000000 
L_front_hand02_01 0.000000 0.000000 0.000000 0.000000 0.000000 0.000000 10.000000 
L_front_hand03_01 0.000000 0.000000 0.000000 0.000000 0.000000 0.000000 10.000000 
L_front_hand01_02 0.000000 0.000000 0.000000 0.000000 0.000000 0.000000 10.000000 
L_front_hand02_02 0.000000 0.000000 0.000000 0.000000 0.000000 0.000000 10.000000 
L_front_hand03_02 0.000000 0.000000 0.000000 0.000000 0.000000 0.000000 10.000000 
R_forearm 0.000000 0.000000 0.000000 0.000000 0.000000 0.000000 10.000000 
R_front_hand 0.000000 0.000000 0.000000 0.000000 0.000000 0.000000 10.000000 
R_weapon_bone 0.000000 0.000000 0.000000 0.000000 0.000000 0.000000 10.000000 
R_front_hand01_01 0.000000 0.000000 0.000000 0.000000 0.000000 0.000000 10.000000 
R_front_hand02_01 0.000000 0.000000 0.000000 0.000000 0.000000 0.000000 10.000000 
R_front_hand03_01 0.000000 0.000000 0.000000 0.000000 0.000000 0.000000 10.000000 
R_front_hand01_02 0.000000 0.000000 0.000000 0.000000 0.000000 0.000000 10.000000 
R_front_hand02_02 0.000000 0.000000 0.000000 0.000000 0.000000 0.000000 10.000000 
R_front_hand03_02 0.000000 0.000000 0.000000 0.000000 0.000000 0.000000 10.000000 
null_rope01_connect 0.000000 0.000000 0.000000 0.000000 0.000000 0.000000 10.000000 
Rope1_Seg01 0.000000 0.000000 0.000000 0.000000 0.000000 0.000000 10.000000 
Rope1_Seg02 0.000000 0.000000 0.000000 0.000000 0.000000 0.000000 10.000000 
Rope1_Seg03 0.000000 0.000000 0.000000 0.000000 0.000000 0.000000 10.000000 
Rope1_Seg04 0.000000 0.000000 0.000000 0.000000 0.000000 0.000000 10.000000 
Rope1_Seg05 0.000000 0.000000 0.000000 0.000000 0.000000 0.000000 10.000000 
Rope1_Seg06 0.000000 0.000000 0.000000 0.000000 0.000000 0.000000 10.000000 
Rope1_Seg07 0.000000 0.000000 0.000000 0.000000 0.000000 0.000000 10.000000 
Rope1_Seg09 0.000000 0.000000 0.000000 0.000000 0.000000 0.000000 10.000000 
L_mid_hand01 0.000000 0.000000 0.000000 0.000000 0.000000 0.000000 10.000000 
L_mid_hand02 0.000000 0.000000 0.000000 0.000000 0.000000 0.000000 10.000000 
L_mid_hand03 0.000000 0.000000 0.000000 0.000000 0.000000 0.000000 10.000000 
null_rope02_connect 0.000000 0.000000 0.000000 0.000000 0.000000 0.000000 10.000000 
Rope2_Seg01 0.000000 0.000000 0.000000 0.000000 0.000000 0.000000 10.000000 
Rope2_Seg02 0.000000 0.000000 0.000000 0.000000 0.000000 0.000000 10.000000 
Rope2_Seg03 0.000000 0.000000 0.000000 0.000000 0.000000 0.000000 10.000000 
Rope2_Seg04 0.000000 0.000000 0.000000 0.000000 0.000000 0.000000 10.000000 
Rope2_Seg05 0.000000 0.000000 0.000000 0.000000 0.000000 0.000000 10.000000 
Rope2_Seg06 0.000000 0.000000 0.000000 0.000000 0.000000 0.000000 10.000000 
Rope2_Seg07 0.000000 0.000000 0.000000 0.000000 0.000000 0.000000 10.000000 
Rope2_Seg09 0.000000 0.000000 0.000000 0.000000 0.000000 0.000000 10.000000 
R_mid_hand01 0.000000 0.000000 0.000000 0.000000 0.000000 0.000000 10.000000 
R_mid_hand02 0.000000 0.000000 0.000000 0.000000 0.000000 0.000000 10.000000 
R_mid_hand03 0.000000 0.000000 0.000000 0.000000 0.000000 0.000000 10.000000 
spine02 0.000000 0.000000 0.000000 0.000000 0.000000 0.000000 10.000000 
spine03 0.000000 0.000000 0.000000 0.000000 0.000000 0.000000 10.000000 
pelvis 0.000000 0.000000 0.000000 0.000000 0.000000 0.000000 10.000000 
null_rope03_connect 0.000000 0.000000 0.000000 0.000000 0.000000 0.000000 10.000000 
null_rope04_connect 0.000000 0.000000 0.000000 0.000000 0.000000 0.000000 10.000000 
Rope3_Seg01 0.000000 0.000000 0.000000 0.000000 0.000000 0.000000 10.000000 
Rope3_Seg02 0.000000 0.000000 0.000000 0.000000 0.000000 0.000000 10.000000 
Rope3_Seg03 0.000000 0.000000 0.000000 0.000000 0.000000 0.000000 10.000000 
Rope3_Seg04 0.000000 0.000000 0.000000 0.000000 0.000000 0.000000 10.000000 
Rope3_Seg05 0.000000 0.000000 0.000000 0.000000 0.000000 0.000000 10.000000 
Rope3_Seg06 0.000000 0.000000 0.000000 0.000000 0.000000 0.000000 10.000000 
Rope3_Seg07 0.000000 0.000000 0.000000 0.000000 0.000000 0.000000 10.000000 
Rope3_Seg08 0.000000 0.000000 0.000000 0.000000 0.000000 0.000000 10.000000 
Rope3_Seg09 0.000000 0.000000 0.000000 0.000000 0.000000 0.000000 10.000000 
R_rear_hand01 0.000000 0.000000 0.000000 0.000000 0.000000 0.000000 10.000000 
R_rear_hand02 0.000000 0.000000 0.000000 0.000000 0.000000 0.000000 10.000000 
R_rear_hand03 0.000000 0.000000 0.000000 0.000000 0.000000 0.000000 10.000000 
Rope4_Seg01 0.000000 0.000000 0.000000 0.000000 0.000000 0.000000 10.000000 
Rope4_Seg02 0.000000 0.000000 0.000000 0.000000 0.000000 0.000000 10.000000 
Rope4_Seg03 0.000000 0.000000 0.000000 0.000000 0.000000 0.000000 10.000000 
Rope4_Seg04 0.000000 0.000000 0.000000 0.000000 0.000000 0.000000 10.000000 
Rope4_Seg05 0.000000 0.000000 0.000000 0.000000 0.000000 0.000000 10.000000 
Rope4_Seg06 0.000000 0.000000 0.000000 0.000000 0.000000 0.000000 10.000000 
Rope4_Seg07 0.000000 0.000000 0.000000 0.000000 0.000000 0.000000 10.000000 
Rope4_Seg08 0.000000 0.000000 0.000000 0.000000 0.000000 0.000000 10.000000 
Rope4_Seg09 0.000000 0.000000 0.000000 0.000000 0.000000 0.000000 10.000000 
L_rear_hand01 0.000000 0.000000 0.000000 0.000000 0.000000 0.000000 10.000000 
L_rear_hand02 0.000000 0.000000 0.000000 0.000000 0.000000 0.000000 10.000000 
L_rear_hand03 0.000000 0.000000 0.000000 0.000000 0.000000 0.000000 10.000000 
#Beginning of Data. Separated by tabs
#Fr	Tx	Ty	Tz	Rx	Ry	Rz	SF
[MASTER]
29 0.000000 0.000000 0.000000 0.001660 0.001660 0.001660 0.000000
30 0.000000 0.000000 0.000000 0.001660 0.001660 0.001660 0.000000
[root]
29 -37.865845 11.325034 1467.086182 -91.706375 7.188744 -90.037125 1467.618530
30 -37.796844 11.044895 1471.169189 -91.706375 7.188744 -90.037125 1471.696167
[chest]
29 -84.512650 -34.090519 0.000000 -2.117274 0.462005 -179.268204 91.129311
30 -84.512650 -34.090519 0.000000 -2.117274 0.462005 -179.268204 91.129311
[L_mid_tent01]
29 27.299511 22.177458 -249.918259 -11.212391 7.173965 46.128521 252.381134
30 27.299511 22.177458 -249.918259 -11.212391 7.173965 46.128521 252.381134
[R_mid_tent01]
29 23.228794 24.509907 226.238495 -173.453110 -7.865566 48.320808 228.744751
30 23.228794 24.509907 226.238495 -173.453110 -7.865565 48.320805 228.744751
[spine01]
29 -0.361383 -0.195265 0.000000 -0.000001 -0.000007 22.052340 0.410763
30 -0.361383 -0.195265 0.000000 -0.000001 -0.000007 22.052340 0.410763
[Bip01_Neck]
29 165.484543 71.581718 0.000119 175.896118 1.177290 24.871183 180.302734
30 165.484543 71.581718 0.000119 175.896118 1.177290 24.871183 180.302734
[L_humerus]
29 -13.983130 -135.272980 -120.471481 177.317520 0.814944 177.327347 181.680161
30 -13.983130 -135.272980 -120.471481 177.317520 0.814944 177.327347 181.680161
[R_humerus]
29 -13.983309 -135.273102 125.287651 -179.087967 -0.295690 175.068390 184.909012
30 -13.983309 -135.273102 125.287651 -179.087967 -0.295690 175.068390 184.909012
[weapon_bone]
29 235.964890 -300.705902 0.000000 0.000000 -89.951546 -128.212341 382.234833
30 235.964890 -300.705902 0.000000 0.000000 -89.951546 -128.212341 382.234833
[Bip01_Head]
29 97.775497 22.186661 5.309563 3.366012 3.339071 -18.399078 100.401627
30 97.775497 22.186661 5.309563 3.366013 3.339072 -18.399080 100.401627
[eye_left_bone]
29 -24.626970 125.451866 -64.772606 0.000000 -90.000000 -99.840431 143.318359
30 -24.626970 125.451866 -64.772606 0.000000 -90.000000 -99.840431 143.318359
[eye_right_bone]
29 -24.626970 125.451866 64.327362 0.000000 -89.965736 80.156380 143.117676
30 -24.626970 125.451866 64.327362 0.000000 -89.965736 80.156380 143.117676
[L_forearm]
29 322.776093 0.000000 -0.000119 0.001372 -0.001904 -161.553818 322.776093
30 322.776093 0.000000 -0.000119 0.001372 -0.001904 -161.553818 322.776093
[L_front_hand]
29 241.149185 -0.042021 -3.300071 -179.659958 -2.242151 -0.019832 241.171753
30 241.149185 -0.042021 -3.300071 -179.659958 -2.242151 -0.019832 241.171753
[L_weapon_bone]
29 156.183838 0.000000 0.000000 0.000014 0.000007 0.000001 156.183838
30 156.183838 0.000000 0.000000 0.000014 0.000007 0.000001 156.183838
[L_front_hand01_01]
29 86.095154 20.947098 -0.655860 0.405585 -0.442306 -4.620490 88.609184
30 86.095154 20.947098 -0.655860 0.405585 -0.442306 -4.620490 88.609184
[L_front_hand02_01]
29 86.935165 -11.437475 24.513514 116.959450 3.630817 1.495453 91.046425
30 86.935165 -11.437475 24.513514 116.959450 3.630817 1.495453 91.046425
[L_front_hand03_01]
29 86.637497 -14.123976 -20.424902 -118.419884 -4.660555 -0.155069 90.126129
30 86.637497 -14.123976 -20.424902 -118.419884 -4.660555 -0.155069 90.126129
[L_front_hand01_02]
29 71.020905 -0.000179 0.000030 0.000004 -0.000005 -8.379269 71.020905
30 71.020905 -0.000179 0.000030 0.000004 -0.000005 -8.379269 71.020905
[L_front_hand02_02]
29 71.020927 -0.000119 0.000060 -0.000005 -0.000004 -8.379259 71.020927
30 71.020927 -0.000119 0.000060 -0.000005 -0.000004 -8.379259 71.020927
[L_front_hand03_02]
29 71.020905 -0.000060 0.000060 0.000015 -0.000040 -8.379267 71.020905
30 71.020905 -0.000060 0.000060 0.000015 -0.000040 -8.379267 71.020905
[R_forearm]
29 322.776428 -0.000060 0.000030 0.066610 0.203476 -163.260239 322.776428
30 322.776428 -0.000060 0.000030 0.066610 0.203476 -163.260239 322.776428
[R_front_hand]
29 238.847015 -0.006795 2.210259 -0.270529 1.703932 2.322530 238.857239
30 238.847015 -0.006795 2.210259 -0.270529 1.703932 2.322530 238.857239
[R_weapon_bone]
29 155.664093 0.002503 -0.000030 0.003487 0.001180 -90.988930 155.664078
30 155.664093 0.002503 -0.000030 0.003487 0.001180 -90.988930 155.664078
[R_front_hand01_01]
29 87.624611 14.231146 22.918642 -116.960213 3.496675 -1.324139 91.683487
30 87.624611 14.231146 22.918642 -116.960213 3.496675 -1.324139 91.683487
[R_front_hand02_01]
29 89.356956 14.367283 -19.491137 118.419647 -4.257089 0.609827 92.579636
30 89.356956 14.367283 -19.491137 118.419647 -4.257089 0.609827 92.579636
[R_front_hand03_01]
29 87.286232 -22.307278 -0.143439 -0.387970 -0.231462 4.232001 90.091743
30 87.286232 -22.307278 -0.143439 -0.387970 -0.231462 4.232001 90.091743
[R_front_hand01_02]
29 71.020905 0.000060 0.000119 -0.000005 -0.000020 8.379271 71.020905
30 71.020905 0.000060 0.000119 -0.000005 -0.000020 8.379271 71.020905
[R_front_hand02_02]
29 71.020844 -0.000030 -0.000119 0.000000 -0.000021 8.379271 71.020836
30 71.020844 -0.000030 -0.000119 0.000000 -0.000021 8.379271 71.020836
[R_front_hand03_02]
29 71.020905 0.000000 0.000030 -0.000001 -0.000020 8.379275 71.020905
30 71.020905 0.000000 0.000030 -0.000001 -0.000020 8.379275 71.020905
[null_rope01_connect]
29 328.732483 0.000000 -0.000238 160.552872 -75.066147 -124.625038 328.732483
30 328.732483 0.000000 -0.000238 160.552872 -75.066147 -124.625038 328.732483
[Rope1_Seg01]
29 0.000000 0.000000 0.000000 -127.067955 55.938766 -117.389626 0.000000
30 0.000000 0.000000 0.000000 -123.740311 56.359554 -115.405449 0.000000
[Rope1_Seg02]
29 139.999863 -0.000179 0.000000 20.284149 0.023241 -13.237235 139.999863
30 139.999863 -0.000179 0.000000 18.803717 0.034488 -12.757077 139.999863
[Rope1_Seg03]
29 139.999924 0.000060 -0.000060 18.881477 -1.782522 -7.936995 139.999924
30 139.999924 0.000060 -0.000060 16.847864 -1.554695 -7.513591 139.999924
[Rope1_Seg04]
29 139.999924 -0.000060 -0.000119 12.504095 -0.937222 -4.699550 139.999924
30 139.999924 -0.000060 -0.000119 10.484984 -0.693905 -4.279557 139.999924
[Rope1_Seg05]
29 139.999832 0.000119 -0.000060 13.144607 -5.121004 -1.316287 139.999832
30 139.999832 0.000119 -0.000060 13.484442 -4.703518 -1.965263 139.999832
[Rope1_Seg06]
29 139.999954 0.000119 -0.000060 10.151484 -10.424360 3.152328 139.999954
30 139.999954 0.000119 -0.000060 13.087994 -10.351061 1.250407 139.999954
[Rope1_Seg07]
29 139.999985 0.000060 0.000000 4.833670 -11.836860 6.436897 139.999985
30 139.999985 0.000060 0.000000 7.086515 -12.253181 4.773915 139.999985
[Rope1_Seg09]
29 121.602913 0.000119 -0.000089 -89.793175 -1.359789 0.847147 121.602913
30 121.602913 0.000119 -0.000089 -89.793175 -1.359789 0.847147 121.602913
[L_mid_hand01]
29 103.859421 1.038730 8.195221 106.855484 -31.239275 -9.461397 104.187431
30 103.859421 1.038730 8.195221 106.855484 -31.239275 -9.461397 104.187431
[L_mid_hand02]
29 105.572853 -4.139662 -10.864139 -142.331345 25.752670 -28.774628 106.211075
30 105.572853 -4.139662 -10.864139 -142.331345 25.752670 -28.774628 106.211075
[L_mid_hand03]
29 104.641464 17.579376 -3.913581 -16.122810 9.734291 34.223598 106.179977
30 104.641464 17.579376 -3.913581 -16.122810 9.734291 34.223598 106.179977
[null_rope02_connect]
29 328.732849 0.000179 -0.000119 174.610336 81.478409 -39.424759 328.732849
30 328.732849 0.000179 -0.000119 174.610336 81.478409 -39.424759 328.732849
[Rope2_Seg01]
29 0.000076 0.000111 0.000153 138.195786 56.113773 -92.751312 0.000204
30 0.000076 0.000111 0.000153 134.080872 55.802296 -96.729294 0.000204
[Rope2_Seg02]
29 139.999741 -0.000060 -0.000119 -3.062484 15.808537 -5.110094 139.999756
30 139.999741 -0.000060 -0.000119 -2.320051 16.310783 -6.140089 139.999756
[Rope2_Seg03]
29 140.000107 0.000030 0.000000 19.577444 17.455786 -15.304688 140.000107
30 140.000107 0.000030 0.000000 20.973171 17.395025 -16.277874 140.000107
[Rope2_Seg04]
29 139.999802 0.000000 -0.000060 -44.216602 10.594063 2.533279 139.999802
30 139.999802 0.000000 -0.000060 -36.215801 10.548196 1.021123 139.999802
[Rope2_Seg05]
29 139.999985 -0.000060 0.000119 -33.104176 -12.244699 26.886976 139.999985
30 139.999985 -0.000060 0.000119 -41.006573 -6.483998 27.056484 139.999985
[Rope2_Seg06]
29 139.999893 -0.000030 -0.000119 -3.006646 -8.934589 6.755840 139.999893
30 139.999893 -0.000030 -0.000119 -3.654043 -8.436105 6.913624 139.999893
[Rope2_Seg07]
29 139.999893 0.000060 -0.000060 -1.112087 -4.006347 3.109269 139.999893
30 139.999893 0.000060 -0.000060 -1.350268 -3.791547 3.154546 139.999893
[Rope2_Seg09]
29 121.338966 0.000089 -0.000060 33.793236 -1.359788 -0.847141 121.338966
30 121.338966 0.000089 -0.000060 33.793236 -1.359788 -0.847141 121.338966
[R_mid_hand01]
29 104.680779 11.144459 -10.335981 -41.523792 25.424656 28.595957 105.778534
30 104.680779 11.144459 -10.335981 -41.523792 25.424656 28.595957 105.778534
[R_mid_hand02]
29 104.070427 2.443552 8.231699 72.847389 -32.746803 10.013901 104.424065
30 104.070427 2.443552 8.231699 72.847389 -32.746803 10.013901 104.424065
[R_mid_hand03]
29 106.028137 -11.221827 -5.996406 -167.901306 10.259192 -37.009720 106.788818
30 106.028137 -11.221827 -5.996406 -167.901306 10.259192 -37.009720 106.788818
[spine02]
29 129.756927 0.001550 0.000119 0.360061 -4.044797 -12.915058 129.756927
30 129.756927 0.001550 0.000119 0.360061 -4.044797 -12.915058 129.756927
[spine03]
29 78.613846 0.087372 -4.898873 1.896495 3.831288 16.473045 78.766380
30 78.613846 0.087372 -4.898873 1.896495 3.831288 16.473045 78.766380
[pelvis]
29 169.435242 0.051022 0.000000 -0.060465 -0.180225 14.087930 169.435257
30 169.435242 0.051022 0.000000 -0.060465 -0.180225 14.087930 169.435257
[null_rope03_connect]
29 -1.257226 -2.466202 137.391083 -168.629776 -89.386429 -148.244614 137.418976
30 -1.257226 -2.466202 137.391083 -168.629776 -89.386429 -148.244614 137.418976
[null_rope04_connect]
29 -1.259640 -2.480268 -137.844437 -168.629776 -89.386429 -148.244614 137.872513
30 -1.259640 -2.480268 -137.844437 -168.629776 -89.386429 -148.244614 137.872513
[Rope3_Seg01]
29 0.000000 0.000000 0.000000 -134.660034 11.209327 -108.744720 0.000000
30 0.000000 0.000000 0.000000 -133.673645 9.681097 -107.430969 0.000000
[Rope3_Seg02]
29 139.999924 -0.000119 0.000060 -3.070031 -8.751846 -2.264359 139.999924
30 139.999924 -0.000119 0.000060 -3.333057 -8.626266 -1.036992 139.999924
[Rope3_Seg03]
29 139.999924 -0.000119 0.000119 -2.459537 -11.047367 -3.284661 139.999924
30 139.999924 -0.000119 0.000119 -2.922046 -10.686390 -1.568524 139.999924
[Rope3_Seg04]
29 139.999924 0.000119 0.000000 -1.489352 -15.720461 -4.107703 139.999924
30 139.999924 0.000119 0.000000 -2.520955 -14.494446 -1.218649 139.999924
[Rope3_Seg05]
29 139.999924 -0.000238 0.000060 0.277163 -3.164863 -4.950162 139.999924
30 139.999924 -0.000238 0.000060 0.327392 -4.058107 -5.832230 139.999924
[Rope3_Seg06]
29 139.999893 -0.000119 -0.000060 0.107649 4.643026 -3.736633 139.999893
30 139.999893 -0.000119 -0.000060 0.257897 2.486647 -5.991062 139.999893
[Rope3_Seg07]
29 139.999771 0.000060 -0.000119 0.397278 0.644145 -2.667071 139.999771
30 139.999771 0.000060 -0.000119 0.420330 -0.425944 -3.477296 139.999771
[Rope3_Seg08]
29 139.999985 -0.000060 0.000000 0.436592 0.344711 -1.757777 139.999985
30 139.999985 -0.000060 0.000000 0.433534 -0.331195 -2.235209 139.999985
[Rope3_Seg09]
29 90.185997 -0.000179 -0.000060 89.793228 -1.359877 -0.847183 90.185997
30 90.185997 -0.000179 -0.000060 89.793228 -1.359877 -0.847183 90.185997
[R_rear_hand01]
29 103.366196 -6.073594 -10.757982 -161.551193 16.666374 -30.088671 104.101845
30 103.366196 -6.073594 -10.757982 -161.551193 16.666374 -30.088671 104.101845
[R_rear_hand02]
29 100.509819 12.039542 -7.992327 -34.280552 19.289745 28.875523 101.543350
30 100.509819 12.039542 -7.992327 -34.280552 19.289745 28.875523 101.543350
[R_rear_hand03]
29 101.539970 5.215704 5.435467 83.366440 -30.933914 7.284830 101.819031
30 101.539970 5.215704 5.435467 83.366440 -30.933914 7.284830 101.819031
[Rope4_Seg01]
29 0.000010 0.000038 -0.000114 39.733711 23.315220 -122.125916 0.000121
30 0.000010 0.000038 -0.000114 40.093494 24.471008 -120.958839 0.000121
[Rope4_Seg02]
29 139.999985 0.000060 0.000119 0.815817 4.998417 6.828411 139.999985
30 139.999985 0.000060 0.000119 0.696126 4.139259 6.454004 139.999985
[Rope4_Seg03]
29 139.999924 0.000000 -0.000238 0.519513 7.782400 10.511205 139.999924
30 139.999924 0.000000 -0.000238 0.375154 6.336417 9.777320 139.999924
[Rope4_Seg04]
29 139.999985 0.000000 0.000119 -1.728355 14.829075 21.402967 139.999985
30 139.999985 0.000000 0.000119 -1.707873 11.615849 19.503262 139.999985
[Rope4_Seg05]
29 139.999802 -0.000060 -0.000119 -3.217654 5.936713 8.592544 139.999802
30 139.999802 -0.000060 -0.000119 -3.093306 6.615444 9.930781 139.999802
[Rope4_Seg06]
29 139.999924 0.000000 0.000060 3.288073 -2.149083 -5.669036 139.999924
30 139.999924 0.000000 0.000060 2.036773 0.128302 -2.949448 139.999924
[Rope4_Seg07]
29 139.999802 0.000000 0.000000 0.391774 0.249880 -0.274455 139.999802
30 139.999802 0.000000 0.000000 -0.049181 1.124747 0.866713 139.999802
[Rope4_Seg08]
29 139.999924 0.000000 0.000119 -1.333849 0.203515 -0.079847 139.999924
30 139.999924 0.000000 0.000119 -1.592486 0.696981 0.560793 139.999924
[Rope4_Seg09]
29 90.185791 0.000060 0.000060 -135.617828 2.228885 0.850567 90.185791
30 90.185791 0.000060 0.000060 -135.617828 2.228885 0.850567 90.185791
[L_rear_hand01]
29 101.696655 -8.392275 -7.654577 -34.454281 -18.946800 151.655121 102.329041
30 101.696655 -8.392275 -7.654577 -34.454281 -18.946800 151.655121 102.329041
[L_rear_hand02]
29 102.726799 -1.568258 5.773216 83.407906 30.330435 172.796509 102.900848
30 102.726799 -1.568258 5.773216 83.407906 30.330435 172.796509 102.900848
[L_rear_hand03]
29 104.552910 9.721220 -10.420293 -161.379868 -16.473232 -150.512238 105.519653
30 104.552910 9.721220 -10.420293 -161.379868 -16.473232 -150.512238 105.519653
